<svg xmlns="http://www.w3.org/2000/svg" viewBox="0 0 150.785 96.47">
  <g id="Logo" transform="translate(-197.57 -160.616)" fill="currentColor">
    <path id="Path_812" data-name="Path 812" d="M259.71,161.055H208.182a10.612,10.612,0,0,0-10.612,10.612V223.2a10.612,10.612,0,0,0,10.612,10.612H259.71A10.612,10.612,0,0,0,270.322,223.2V171.667A10.612,10.612,0,0,0,259.71,161.055Zm1.551,36.67a6.367,6.367,0,0,1-6.368,6.367H219.956v7.191h34.937a6.368,6.368,0,0,1,6.368,6.367v.589a6.367,6.367,0,0,1-6.368,6.367H213a6.367,6.367,0,0,1-6.368-6.367v-21.1A6.376,6.376,0,0,1,213,190.769h41.892a6.368,6.368,0,0,1,6.368,6.368Zm0-20.515a6.368,6.368,0,0,1-6.368,6.368H213a6.367,6.367,0,0,1-6.367-6.368v-.589A6.367,6.367,0,0,1,213,170.255h41.892a6.367,6.367,0,0,1,6.368,6.367Z" transform="translate(0 -0.28)" fill="currentColor"/>
    <path id="Path_813" data-name="Path 813" d="M475.49,160.616H423.962a10.612,10.612,0,0,0-10.612,10.612v51.528a10.612,10.612,0,0,0,10.612,10.612H475.49A10.612,10.612,0,0,0,486.1,222.756V171.228A10.612,10.612,0,0,0,475.49,160.616Zm1.55,57.5a6.367,6.367,0,0,1-6.368,6.367H428.78a6.367,6.367,0,0,1-6.367-6.367v-.589a6.367,6.367,0,0,1,6.367-6.367h41.892a6.368,6.368,0,0,1,6.368,6.367Zm0-41.029a6.345,6.345,0,0,1-1.913,4.546c-.061.067-.118.137-.183.2l-22.5,22.5a6.367,6.367,0,0,1-9,0l-.417-.417a6.367,6.367,0,0,1,0-9l11.461-11.462h-25.7a6.367,6.367,0,0,1-6.367-6.368V176.5a6.367,6.367,0,0,1,6.367-6.367h41.892a6.367,6.367,0,0,1,6.368,6.367Z" transform="translate(-137.747)" fill="currentColor"/>
    <g id="Group_19" data-name="Group 19" transform="translate(218.405 244.057)">
      <path id="Path_814" data-name="Path 814" d="M255.184,391.352h8.395v2.438h-5.714V396.6h5.026v2.438h-5.026v2.9h5.788v2.439h-8.469Z" transform="translate(-255.184 -391.352)" />
      <path id="Path_815" data-name="Path 815" d="M325.693,402.315l5.937-8.562h-5.751v-2.4h9.083v2.066l-5.938,8.562h5.938v2.4h-9.269Z" transform="translate(-300.195 -391.352)" />
      <path id="Path_816" data-name="Path 816" d="M399.7,391.352h4.337c2.923,0,4.765,1.694,4.765,4.467v.037c0,3-2.14,4.5-4.877,4.56H402.4v3.965h-2.7ZM403.909,398a1.99,1.99,0,0,0,2.178-2.084v-.019a1.946,1.946,0,0,0-2.215-2.1H402.4V398Z" transform="translate(-347.441 -391.352)" />
      <path id="Path_817" data-name="Path 817" d="M472.222,391.352h2.7v13.029h-2.7Z" transform="translate(-393.734 -391.352)" />
      <path id="Path_818" data-name="Path 818" d="M529.349,391.352h2.476l4.988,7.594v-7.594h2.643v13.029h-2.308l-5.155-7.873v7.873h-2.643Z" transform="translate(-430.203 -391.352)" />
    </g>
  </g>
</svg>
