<svg version="1.0" xmlns="http://www.w3.org/2000/svg" width="24.000000pt" height="24.000000pt"
    viewBox="0 0 512.000000 512.000000" preserveAspectRatio="xMidYMid meet">

    <g transform="translate(0.000000,512.000000) scale(0.100000,-0.100000)" fill="currentColor" stroke="none">
        <path d="M3816 5110 c-290 -46 -562 -215 -720 -447 l-49 -72 -76 -6 c-451 -38
-814 -277 -1004 -660 -85 -172 -118 -309 -123 -510 l-3 -140 -203 -121 c-136
-82 -210 -132 -225 -153 -12 -17 -29 -65 -39 -106 -10 -41 -21 -79 -24 -85 -5
-8 -36 -8 -109 0 -96 10 -105 10 -146 -10 -50 -24 -78 -71 -97 -163 l-12 -59
-51 6 c-154 17 -169 17 -205 -1 -47 -24 -74 -69 -95 -154 l-18 -71 -41 6
c-131 18 -185 18 -234 2 -60 -20 -133 -81 -157 -133 -20 -42 -95 -454 -95
-521 0 -50 27 -102 62 -120 54 -28 506 -172 541 -172 21 0 48 5 60 11 12 7
367 218 789 470 422 253 771 459 776 459 4 0 23 -36 41 -79 l33 -79 -137 -182
c-75 -100 -143 -198 -151 -217 -13 -30 -13 -49 -3 -129 7 -52 10 -96 7 -99 -3
-3 -45 -17 -94 -32 -110 -32 -138 -51 -160 -108 -15 -40 -15 -54 -5 -121 7
-42 11 -78 8 -80 -2 -2 -44 -16 -93 -30 -104 -30 -128 -43 -154 -87 -21 -34
-25 -95 -11 -180 l8 -47 -71 -20 c-159 -46 -209 -78 -250 -159 -43 -85 -42
-106 18 -375 59 -265 70 -292 132 -321 34 -16 51 -16 283 -1 281 19 305 22
338 43 13 8 278 357 589 775 l567 759 71 -8 c118 -13 304 -8 396 11 472 97
821 439 937 918 14 57 18 113 17 258 0 166 -3 195 -26 280 -15 52 -29 102 -32
111 -5 10 7 25 39 48 202 145 362 416 405 684 20 121 8 330 -24 442 -54 183
-133 321 -264 457 -200 208 -440 315 -727 323 -71 2 -157 0 -189 -5z m280
-171 c362 -50 667 -334 748 -696 25 -113 22 -289 -8 -406 -40 -157 -117 -295
-228 -407 -71 -71 -110 -100 -115 -84 -14 43 -125 186 -207 268 -91 91 -102
106 -123 169 -54 160 -142 304 -262 430 -150 158 -355 280 -555 332 -55 14
-101 27 -103 28 -7 7 101 127 151 167 205 166 448 235 702 199z m-859 -543
c223 -47 435 -172 576 -341 58 -70 133 -183 125 -190 -2 -2 -42 9 -88 25 -155
53 -221 64 -400 63 -117 0 -186 -5 -238 -16 -484 -110 -836 -464 -932 -937
-23 -112 -29 -321 -12 -412 l9 -47 -794 -476 -794 -476 -215 71 c-200 67 -215
74 -210 94 3 11 19 104 36 206 17 102 38 195 46 208 25 38 55 43 179 31 62 -7
129 -9 148 -5 44 8 92 61 107 116 5 22 14 57 20 78 l9 37 104 -9 c125 -11 151
-5 193 40 25 26 37 52 49 110 l17 75 118 -7 c109 -6 121 -5 152 14 45 28 57
52 84 156 12 49 29 94 36 101 7 7 108 69 225 139 117 70 216 132 220 139 4 7
8 89 9 182 1 224 26 334 113 502 155 295 443 496 776 542 87 12 241 6 332 -13z
m468 -640 c189 -49 390 -172 512 -313 50 -57 133 -179 133 -194 0 -16 -169
-69 -266 -83 l-41 -6 -12 43 c-78 263 -434 327 -596 107 -53 -72 -68 -126 -63
-223 7 -127 70 -225 183 -285 45 -24 61 -27 150 -27 89 0 106 3 150 27 57 29
134 107 153 153 12 30 16 31 118 48 57 9 144 30 192 47 48 17 91 32 96 33 5 1
18 -29 29 -68 16 -57 20 -103 21 -245 1 -154 -2 -185 -22 -260 -100 -366 -375
-640 -739 -737 -84 -22 -119 -26 -248 -26 -105 -1 -169 4 -214 15 -71 18 -94
13 -128 -23 -11 -13 -274 -364 -583 -779 -310 -415 -563 -756 -564 -756 -5 -6
-442 -30 -447 -25 -4 3 -27 98 -52 210 -62 275 -67 262 130 321 164 49 196 92
174 236 -6 42 -10 78 -9 79 2 1 39 12 83 24 112 32 142 48 166 88 20 32 21 43
15 132 l-7 98 98 29 c109 32 157 69 168 127 4 19 0 76 -7 128 l-14 94 158 214
c101 136 158 221 158 237 0 13 -20 63 -44 111 -85 169 -111 296 -104 504 5
117 11 161 32 234 116 388 440 674 831 735 106 16 298 5 410 -24z m48 -487
c37 -10 107 -69 107 -91 0 -16 -80 -3 -172 28 -43 14 -78 30 -78 35 0 12 58
38 85 39 11 0 37 -5 58 -11z m-43 -248 c46 -11 93 -21 103 -21 17 0 17 -2 6
-16 -40 -48 -143 -60 -200 -21 -35 24 -79 81 -79 103 0 10 10 9 43 -5 24 -10
81 -28 127 -40z" />
        <path d="M1310 2359 c-377 -226 -695 -420 -707 -432 -51 -46 -12 -137 58 -137
25 0 196 98 723 414 380 227 699 422 709 433 23 26 22 74 -4 107 -45 57 -34
62 -779 -385z" />
        <path d="M2873 1988 c-11 -13 -267 -354 -569 -758 -403 -540 -549 -744 -552
-767 -3 -26 2 -39 26 -63 38 -38 73 -39 111 -2 17 15 276 358 578 762 500 672
547 738 547 774 1 28 -6 43 -23 57 -33 27 -92 25 -118 -3z" />
    </g>
</svg>