<svg width="17" height="15" viewBox="0 0 17 15" fill="none" xmlns="http://www.w3.org/2000/svg">
<path fill-rule="evenodd" clip-rule="evenodd" d="M15.3765 9.70067C15.8165 9.52067 16.341 9.86567 16.1574 10.2707C14.905 13.0457 11.8999 14.9999 8.39096 14.9999C3.75639 14.9999 0 11.5907 0 7.38487C0 3.84404 2.66322 0.867366 6.27025 0.0148661C6.73811 -0.0951339 7.04492 0.421536 6.78939 0.794866C6.12166 1.76901 5.76772 2.89933 5.76909 4.05321C5.76909 7.47071 8.821 10.2407 12.5864 10.2407C13.5468 10.2422 14.497 10.0583 15.3765 9.70067ZM10.6186 0.758808C10.301 0.317148 10.8696 -0.209522 11.3465 0.0854778L12.1968 0.610478C12.5415 0.823448 12.9466 0.937108 13.361 0.937108C13.7754 0.937108 14.1805 0.823448 14.5252 0.610478L15.3746 0.0854778C15.8524 -0.209522 16.421 0.317148 16.1025 0.758808L15.5357 1.54631C15.3057 1.86562 15.183 2.24083 15.183 2.62465C15.183 3.00846 15.3057 3.38368 15.5357 3.70298L16.1025 4.49048C16.421 4.93215 15.8524 5.45881 15.3755 5.16381L14.5252 4.63881C14.1805 4.42584 13.7754 4.31219 13.361 4.31219C12.9466 4.31219 12.5415 4.42584 12.1968 4.63881L11.3474 5.16381C10.8705 5.45881 10.301 4.93215 10.6186 4.49048L11.1854 3.70298C11.4154 3.38368 11.5381 3.00846 11.5381 2.62465C11.5381 2.24083 11.4154 1.86562 11.1854 1.54631L10.6186 0.758808Z" fill="#828FA3"/>
</svg>
