
<svg width="19" height="18" viewBox="0 0 19 18" fill="none" xmlns="http://www.w3.org/2000/svg">
<g clip-path="url(#clip0_543_416)">
<path d="M9.08006 11.25C10.3337 11.25 11.3501 10.2426 11.3501 9C11.3501 7.75736 10.3337 6.75 9.08006 6.75C7.82637 6.75 6.81006 7.75736 6.81006 9C6.81006 10.2426 7.82637 11.25 9.08006 11.25Z" stroke="currentColor" stroke-linecap="round" stroke-linejoin="round"/>
<path d="M14.6794 11.25C14.5787 11.4762 14.5486 11.7271 14.5931 11.9704C14.6376 12.2137 14.7546 12.4382 14.9291 12.615L14.9745 12.66C15.1152 12.7993 15.2268 12.9647 15.303 13.1468C15.3791 13.3289 15.4183 13.5241 15.4183 13.7213C15.4183 13.9184 15.3791 14.1136 15.303 14.2957C15.2268 14.4778 15.1152 14.6432 14.9745 14.7825C14.8339 14.922 14.667 15.0326 14.4833 15.1081C14.2996 15.1836 14.1027 15.2224 13.9038 15.2224C13.7049 15.2224 13.508 15.1836 13.3243 15.1081C13.1406 15.0326 12.9737 14.922 12.8331 14.7825L12.7877 14.7375C12.6094 14.5646 12.3829 14.4486 12.1374 14.4045C11.892 14.3604 11.6388 14.3902 11.4106 14.49C11.1868 14.5851 10.9959 14.7429 10.8615 14.9442C10.727 15.1454 10.6549 15.3812 10.6539 15.6225V15.75C10.6539 16.1478 10.4945 16.5294 10.2107 16.8107C9.92686 17.092 9.54194 17.25 9.14058 17.25C8.73922 17.25 8.3543 17.092 8.07049 16.8107C7.78669 16.5294 7.62725 16.1478 7.62725 15.75V15.6825C7.62139 15.4343 7.54032 15.1935 7.39458 14.9915C7.24884 14.7896 7.04517 14.6357 6.81005 14.55C6.58182 14.4502 6.32866 14.4204 6.0832 14.4645C5.83774 14.5086 5.61124 14.6246 5.43291 14.7975L5.38751 14.8425C5.24697 14.982 5.08006 15.0926 4.89635 15.1681C4.71263 15.2436 4.51571 15.2824 4.31683 15.2824C4.11796 15.2824 3.92103 15.2436 3.73731 15.1681C3.5536 15.0926 3.3867 14.982 3.24615 14.8425C3.10544 14.7032 2.99382 14.5378 2.91766 14.3557C2.84151 14.1736 2.80231 13.9784 2.80231 13.7812C2.80231 13.5841 2.84151 13.3889 2.91766 13.2068C2.99382 13.0247 3.10544 12.8593 3.24615 12.72L3.29155 12.675C3.46599 12.4982 3.583 12.2737 3.62751 12.0304C3.67202 11.7871 3.64197 11.5362 3.54125 11.31C3.44533 11.0882 3.28607 10.899 3.08306 10.7657C2.88005 10.6325 2.64217 10.561 2.39868 10.56H2.27005C1.86869 10.56 1.48376 10.402 1.19996 10.1207C0.916154 9.83936 0.756714 9.45782 0.756714 9.06C0.756714 8.66218 0.916154 8.28064 1.19996 7.99934C1.48376 7.71804 1.86869 7.56 2.27005 7.56H2.33815C2.5886 7.55419 2.8315 7.47384 3.03526 7.32938C3.23903 7.18493 3.39424 6.98305 3.48071 6.75C3.58144 6.52379 3.61148 6.27286 3.56698 6.02956C3.52247 5.78626 3.40545 5.56176 3.23101 5.385L3.18561 5.34C3.04491 5.20069 2.93329 5.03526 2.85713 4.85316C2.78097 4.67106 2.74177 4.47587 2.74177 4.27875C2.74177 4.08163 2.78097 3.88644 2.85713 3.70434C2.93329 3.52224 3.04491 3.35681 3.18561 3.2175C3.32616 3.07804 3.49307 2.9674 3.67678 2.89191C3.8605 2.81642 4.05742 2.77757 4.2563 2.77757C4.45517 2.77757 4.6521 2.81642 4.83581 2.89191C5.01953 2.9674 5.18643 3.07804 5.32698 3.2175L5.37238 3.2625C5.55071 3.4354 5.77721 3.55139 6.02267 3.5955C6.26813 3.63962 6.52129 3.60984 6.74951 3.51H6.81005C7.03385 3.41493 7.22471 3.25707 7.35916 3.05585C7.4936 2.85463 7.56574 2.61884 7.56671 2.3775V2.25C7.56671 1.85218 7.72615 1.47064 8.00996 1.18934C8.29376 0.908035 8.67869 0.75 9.08005 0.75C9.48141 0.75 9.86633 0.908035 10.1501 1.18934C10.4339 1.47064 10.5934 1.85218 10.5934 2.25V2.3175C10.5944 2.55884 10.6665 2.79463 10.8009 2.99585C10.9354 3.19707 11.1262 3.35493 11.35 3.45C11.5783 3.54984 11.8314 3.57962 12.0769 3.5355C12.3224 3.49139 12.5489 3.3754 12.7272 3.2025L12.7726 3.1575C12.9131 3.01804 13.08 2.9074 13.2637 2.83191C13.4475 2.75642 13.6444 2.71757 13.8433 2.71757C14.0421 2.71757 14.2391 2.75642 14.4228 2.83191C14.6065 2.9074 14.7734 3.01804 14.9139 3.1575C15.0547 3.29681 15.1663 3.46224 15.2424 3.64434C15.3186 3.82644 15.3578 4.02163 15.3578 4.21875C15.3578 4.41587 15.3186 4.61106 15.2424 4.79316C15.1663 4.97526 15.0547 5.14069 14.9139 5.28L14.8685 5.325C14.6941 5.50176 14.5771 5.72626 14.5326 5.96956C14.4881 6.21285 14.5181 6.46379 14.6188 6.69V6.75C14.7148 6.97183 14.874 7.16101 15.077 7.29427C15.28 7.42753 15.5179 7.49904 15.7614 7.5H15.89C16.2914 7.5 16.6763 7.65804 16.9601 7.93934C17.2439 8.22064 17.4034 8.60218 17.4034 9C17.4034 9.39782 17.2439 9.77936 16.9601 10.0607C16.6763 10.342 16.2914 10.5 15.89 10.5H15.8219C15.5785 10.501 15.3406 10.5725 15.1376 10.7057C14.9346 10.839 14.7753 11.0282 14.6794 11.25Z" stroke="currentColor" stroke-width="2" stroke-linecap="round" stroke-linejoin="round"/>
</g>
<defs>
<clipPath id="clip0_543_416">
<rect width="18.16" height="18" fill="white"/>
</clipPath>
</defs>
</svg>
