<svg width="20" height="19" viewBox="0 0 20 19" fill="none" xmlns="http://www.w3.org/2000/svg">
<path fill-rule="evenodd" clip-rule="evenodd" d="M10.5334 0.244082C10.3648 0.087798 10.1359 0 9.89724 0C9.65862 0 9.42976 0.087798 9.26103 0.244082C9.0923 0.400362 8.99751 0.612322 8.99751 0.833332V1.66666C8.99751 1.88768 9.0923 2.09964 9.26103 2.25592C9.42976 2.4122 9.65862 2.5 9.89724 2.5C10.1359 2.5 10.3648 2.4122 10.5334 2.25592C10.7022 2.09964 10.797 1.88768 10.797 1.66666V0.833332C10.797 0.612322 10.7022 0.400362 10.5334 0.244082ZM2.69935 1.66699C2.46077 1.66699 2.23197 1.75476 2.06324 1.91098C1.89457 2.06725 1.79981 2.27918 1.79981 2.50015C1.79981 2.72112 1.89457 2.93304 2.06324 3.08931L3.41285 4.33931C3.58253 4.49111 3.80981 4.57511 4.04571 4.57321C4.28162 4.57131 4.50729 4.48367 4.67411 4.32916C4.84092 4.17466 4.93555 3.96565 4.93759 3.74715C4.93964 3.52865 4.84896 3.31815 4.68507 3.16098L3.33546 1.91098C3.16674 1.75476 2.93793 1.66699 2.69935 1.66699ZM17.9945 2.50015C17.9945 2.27918 17.8997 2.06725 17.731 1.91098C17.5623 1.75476 17.3335 1.66699 17.0949 1.66699C16.8564 1.66699 16.6276 1.75476 16.4588 1.91098L15.1092 3.16098C15.0233 3.23785 14.9547 3.32981 14.9076 3.43148C14.8605 3.53315 14.8357 3.6425 14.8346 3.75315C14.8335 3.8638 14.8563 3.97353 14.9015 4.07594C14.9468 4.17836 15.0136 4.2714 15.098 4.34964C15.1826 4.42789 15.283 4.48977 15.3936 4.53167C15.5042 4.57357 15.6226 4.59465 15.742 4.59369C15.8616 4.59273 15.9796 4.56974 16.0894 4.52607C16.1992 4.48239 16.2984 4.41891 16.3814 4.33931L17.731 3.08931C17.8997 2.93304 17.9945 2.72112 17.9945 2.50015ZM0.263525 8.57758C0.0947928 8.73386 0 8.94582 0 9.16683C0 9.38784 0.0947928 9.59984 0.263525 9.75604C0.432258 9.91234 0.661107 10.0001 0.899738 10.0001H1.79947C2.03809 10.0001 2.26694 9.91234 2.43568 9.75604C2.60441 9.59984 2.6992 9.38784 2.6992 9.16683C2.6992 8.94582 2.60441 8.73386 2.43568 8.57758C2.26694 8.4213 2.03809 8.3335 1.79947 8.3335H0.899738C0.661107 8.3335 0.432258 8.4213 0.263525 8.57758ZM17.3587 8.57758C17.1899 8.73386 17.0951 8.94582 17.0951 9.16683C17.0951 9.38784 17.1899 9.59984 17.3587 9.75604C17.5274 9.91234 17.7563 10.0001 17.9949 10.0001H18.8946C19.1332 10.0001 19.3621 9.91234 19.5309 9.75604C19.6995 9.59984 19.7943 9.38784 19.7943 9.16683C19.7943 8.94582 19.6995 8.73386 19.5309 8.57758C19.3621 8.4213 19.1332 8.3335 18.8946 8.3335H17.9949C17.7563 8.3335 17.5274 8.4213 17.3587 8.57758ZM4.94818 14.5832C4.94818 14.3622 4.85342 14.1503 4.68475 13.994C4.51603 13.8378 4.28721 13.75 4.04863 13.75C3.81006 13.75 3.58125 13.8378 3.41253 13.994L2.06293 15.244C1.89903 15.4012 1.80834 15.6117 1.81039 15.8302C1.81244 16.0487 1.90706 16.2577 2.07389 16.4122C2.2407 16.5667 2.46636 16.6543 2.70227 16.6562C2.93818 16.6581 3.16545 16.5741 3.33515 16.4223L4.68475 15.1723C4.85342 15.0161 4.94818 14.8041 4.94818 14.5832ZM15.7451 13.75C15.5066 13.75 15.2778 13.8378 15.1091 13.994C14.9404 14.1503 14.8456 14.3622 14.8456 14.5832C14.8456 14.8041 14.9404 15.0161 15.1091 15.1723L16.4587 16.4223C16.6283 16.5741 16.8555 16.6581 17.0915 16.6562C17.3274 16.6543 17.5531 16.5667 17.7199 16.4122C17.8867 16.2577 17.9813 16.0487 17.9834 15.8302C17.9854 15.6117 17.8947 15.4012 17.7308 15.244L16.3812 13.994C16.2125 13.8378 15.9837 13.75 15.7451 13.75ZM10.5334 16.0775C10.3648 15.9213 10.1359 15.8335 9.89724 15.8335C9.65862 15.8335 9.42976 15.9213 9.26103 16.0775C9.0923 16.2338 8.99751 16.4458 8.99751 16.6668V17.5001C8.99751 17.7211 9.0923 17.9331 9.26103 18.0894C9.42976 18.2457 9.65862 18.3335 9.89724 18.3335C10.1359 18.3335 10.3648 18.2457 10.5334 18.0894C10.7022 17.9331 10.797 17.7211 10.797 17.5001V16.6668C10.797 16.4458 10.7022 16.2338 10.5334 16.0775ZM6.71603 6.22039C7.55969 5.43899 8.70395 5 9.89707 5C11.0901 5 12.2345 5.43899 13.0782 6.22039C13.9218 7.00179 14.3957 8.0616 14.3957 9.16666C14.3957 10.2718 13.9218 11.3316 13.0782 12.113C12.2345 12.8944 11.0901 13.3334 9.89707 13.3334C8.70395 13.3334 7.55969 12.8944 6.71603 12.113C5.87237 11.3316 5.3984 10.2718 5.3984 9.16666C5.3984 8.0616 5.87237 7.00179 6.71603 6.22039Z" fill="#828FA3"/>
</svg>
